<?xml version="1.0" encoding="UTF-8"?>
<svg width="600px" height="600px" viewBox="0 0 600 600" version="1.1" xmlns="http://www.w3.org/2000/svg" xmlns:xlink="http://www.w3.org/1999/xlink">
    <title>简单搭建</title>
    <defs>
        <path d="M281.401481,386.851359 C436.815227,386.851359 560.776934,327.203198 560.776934,221.981439 C560.776934,116.759681 462.967401,65.6846553 270.99948,12.2561812 C79.0315598,-41.1722928 0,91.1087536 0,196.330512 C0,301.55227 125.987734,386.851359 281.401481,386.851359 Z" id="path-1"></path>
    </defs>
    <g id="简单搭建" stroke="none" stroke-width="1" fill="none" fill-rule="evenodd">
        <g id="编组-5" transform="translate(20.000000, 100.000000)">
            <g id="路径-27">
                <mask id="mask-2" fill="white">
                    <use xlink:href="#path-1"></use>
                </mask>
                <use id="蒙版" fill-opacity="0.201471502" fill="#7E838E" xlink:href="#path-1"></use>
                <path d="M-2.99184151,145.520263 L70.3800892,135.399639 L83.0838309,109.540449 L85.1610154,96.6244956 L93.3474941,92.2467415 L100.91531,96.6244956 L97.890119,126.332323 C106.835162,122.991647 111.307684,121.321308 111.307684,121.321308 C111.307684,121.321308 118.715811,117.011784 133.532066,108.392737 L139.305887,112.150992 L139.305887,116.954408 L147.970606,112.150992 L153.435287,114.981461 L156.236773,119.955903 L151.168615,128.541593 L156.236773,135.399639 L152.520736,143.932235 L143.226555,154.387287 L147.970606,158.648287 L149.013827,167.763984 L131.173916,189.92458 C109.913671,208.461902 90.9676636,220.037436 74.3358944,224.651182 C57.7041253,229.264928 32.9254938,236.990988 -2.22044605e-15,247.829362 L-2.99184151,145.520263 Z" fill="#FFFFFF" mask="url(#mask-2)"></path>
            </g>
            <path d="M433.135266,59.2669096 L421.83657,70.1128843 L403.962017,78.2584143 L391.186965,87.4891804 L386.993919,95.9834191 L400.971955,142.752455 L403.165074,160.572968 L409.776812,168.208035 L417.993432,169.982256 L427.993275,168.208035 L435.871924,171.982225 L446.629303,168.208035 L454.662938,169.982256 L464.420294,165.982319 L475.492529,158.982429 C481.001652,150.392562 483.501613,144.350946 482.992411,140.857582 C482.483209,137.364219 478.979548,135.072632 472.481429,133.982822 L470.179861,133.982822 C481.990063,116.622067 487.352154,103.190854 486.266136,93.6891834 C481.885166,92.0646394 470.755125,86.5433024 452.876013,77.1251722 C443.167544,68.4881548 438.31331,64.1696462 438.31331,64.1696462 C438.31331,64.1696462 436.587295,62.5354006 433.135266,59.2669096 Z" id="路径-35" fill="#FFFFFF"></path>
            <polygon id="路径-34" fill="#FFFFFF" points="198.732317 276.610014 210.294024 302.44835 212.394032 318.91963 208.806331 346.075512 212.394032 367.512946 212.394032 376.801688 210.294024 389.041253 282.008934 400 292.742762 359.210403 301.618666 327.060483 236.628748 305.341111 217.608715 276.610014 212.394032 270.982346 204.996779 269.357228 200.910049 272.686602"></polygon>
            <g id="编组-4" transform="translate(0.000000, 5.809665)">
                <path d="M396.993762,90.173754 L396.993762,216.171774 L364.994265,216.171774 L364.994265,216.171774 C364.994265,200.708044 352.458435,188.172214 336.994705,188.172214 C321.530975,188.172214 308.995145,200.708044 308.995145,216.171774 L273.995695,216.171774 L273.995695,181.172324 C258.531965,181.172324 245.996135,168.636494 245.996135,153.172764 C245.996135,137.863671 258.282502,125.424213 273.532671,125.176955 L273.995695,125.173204 L273.995695,90.173754 L396.993762,90.173754 Z" id="形状结合" fill="#4D3FFF"></path>
                <g id="编组-3" transform="translate(-0.000000, 18.174885)">
                    <path d="M188.098738,-1.94501729e-15 L206.347182,25.1330766 C198.337612,30.0599412 192.996968,38.9058985 192.996968,48.9992301 C192.996968,64.4629601 205.532798,76.9987901 220.996528,76.9987901 C227.923619,76.9987901 234.26318,74.4832783 239.151559,70.3159085 L256.995962,94.894509 L229.988741,114.360179 C231.912373,118.156747 232.996339,122.450789 232.996339,126.998005 C232.996339,142.461735 220.460509,154.997565 204.996779,154.997565 C197.219432,154.997565 190.182698,151.826629 185.108885,146.707067 L158.423132,165.94003 L89.4335601,70.5514456 L188.098738,-1.94501729e-15 Z" id="形状结合" fill="#1E94FF"></path>
                    <path d="M84.315419,76.9987901 L87.5961849,68.2621911 L93.3474941,68.2621911 L99.2845589,72.6304906 L100.91531,85.5823238 L97.890119,102.347773 L116.162096,94.0042221 L131.415424,84.4081862 L137.155845,86.8483735 L139.305887,91.9896607 L146.22839,88.1664412 L152.155033,89.6579897 L156.236773,95.9713524 L151.168615,104.557042 L156.236773,111.415089 L154.438942,118.410872 L144.75389,130.402737 L149.013827,137.13143 L143.36762,150.908243 L131.415424,165.001363 C109.065221,148.326734 97.890119,139.701539 97.890119,139.125779 C97.890119,138.55002 91.8614511,123.121813 79.8041155,92.8411579 L84.315419,76.9987901 Z" id="路径-15" fill="#FFFFFF"></path>
                    <path d="M0,121.535713 C12.7062296,119.280143 36.1068306,116.088316 70.2018028,111.96023 C77.577623,101.26548 82.1915225,89.6415846 84.0435011,77.0885442 C85.1970316,64.1696397 100.683302,65.7884896 100.91531,79.6154866 C100.902263,85.7342967 99.8938659,93.3117253 97.890119,102.347773" id="路径-9" stroke="#535B6B" stroke-width="4" stroke-linecap="round"></path>
                    <path d="M87.5961849,107.534519 C95.4317904,104.592383 118.302043,93.3994103 128.838871,85.6815365 C134.872742,81.2589836 144.016686,89.1971726 136.427778,96.6080275" id="路径-10" stroke="#535B6B" stroke-width="4" stroke-linecap="round"></path>
                    <path d="M114.315928,114.402333 C119.695041,111.280981 135.351994,98.3399832 142.660382,90.8392745 C149.968769,83.3385659 160.605587,93.1322928 152.937475,101.660601 C144.042461,112.78838 124.398849,129.678642 117.519508,134.663736" id="路径-11" stroke="#535B6B" stroke-width="4" stroke-linecap="round"></path>
                    <path d="M150.321571,105.323672 C152.892848,104.320457 161.077285,110.448155 152.223314,121.535713 C146.320666,128.927418 137.037797,137.499673 124.374708,147.252479" id="路径-12" stroke="#535B6B" stroke-width="4" stroke-linecap="round"></path>
                    <path d="M144.75389,130.402737 C148.956878,132.514126 152.559636,141.535675 142.684013,152.299959 C133.534792,162.272476 112.6141,192.25494 38.3381866,213.194611 C32.4410591,214.857114 13.9269462,220.277357 7.33635305,221.811316" id="路径-13" stroke="#535B6B" stroke-width="4" stroke-linecap="round"></path>
                </g>
                <path d="M454.111105,0 C445.0725,14.3618861 437.199877,27.4200712 430.493236,39.1745554 C420.433274,56.8062816 493.090049,102.583072 506.131414,83.173864 C515.791896,70.1322247 528.078581,52.7901227 542.991468,31.1475581" id="路径-2" stroke="#535B6B" stroke-width="4" stroke-linecap="round"></path>
                <path d="M433.135266,53.4572445 C430.026773,58.9660173 425.776808,62.9428944 420.385373,65.3878757 C412.298221,69.0553478 391.870773,74.960947 386.993919,89.1737697" id="路径-3" stroke="#535B6B" stroke-width="4" stroke-linecap="round"></path>
                <path d="M398.792631,97.173644 C393.451172,103.76804 379.116883,126.778431 382.506512,136.647044 C385.896142,146.515657 390.876043,160.452114 406.993605,160.16839" id="路径-4" stroke="#535B6B" stroke-width="4" fill="#FFFFFF" stroke-linecap="round"></path>
                <path d="M404.399439,122.173251 C401.640709,130.413697 394.10131,151.763511 408.74497,161.923472 C411.949674,164.371176 416.699136,164.821013 422.993354,163.272983" id="路径-5" stroke="#535B6B" stroke-width="4" stroke-linecap="round"></path>
                <path d="M420.891645,128.173157 C418.150229,134.822091 415.098602,149.35538 423.334408,159.271046 C431.570213,169.186712 440.04676,166.320218 442.993039,163.480626" id="路径-6" stroke="#535B6B" stroke-width="4" stroke-linecap="round"></path>
                <path d="M437.339261,132.48152 C434.222947,141.750551 432.509837,153.571879 443.514855,161.053088 C454.519873,168.534298 468.764517,161.029353 474.144011,154.550176 C479.523505,148.070999 491.029121,134.58736 474.144011,126.173188" id="路径-7" stroke="#535B6B" stroke-width="4" stroke-linecap="round"></path>
                <path d="M461.992741,141.172953 C467.773246,134.702385 484.15091,116.661659 486.266136,87.8795184" id="路径-8" stroke="#535B6B" stroke-width="4" stroke-linecap="round"></path>
                <g id="编组-2" transform="translate(168.552600, 191.288751)">
                    <path d="M-26.186048,157.879227 C-22.8929503,157.660755 -8.99179793,156.438692 -6.57325159,156.136797 C5.53153565,154.625817 7.77116942,152.181314 11.0419575,149.91781 C21.2109302,142.880512 32.1868512,142.950681 41.8092538,141.673737 C59.543997,139.320244 76.5907239,132.085553 89.7168352,116.97142 C92.8076427,113.109295 104.219884,118.871138 96.9683594,130.880673 C92.1340099,138.887029 85.4375741,146.487551 76.8790518,153.682236" id="路径-28" stroke="#535B6B" stroke-width="4" stroke-linecap="round" transform="translate(36.576391, 136.829706) rotate(-75.000000) translate(-36.576391, -136.829706) "></path>
                    <path d="M80.4434874,16.8831488 C80.4434874,32.3468788 92.9793174,44.8827088 108.443047,44.8827088 C123.906777,44.8827088 136.442607,32.3468788 136.442607,16.8831488 L167.44212,16.8831488 L167.44212,47.8826617 C182.90585,47.8826617 195.44168,60.4184917 195.44168,75.8822217 C195.44168,91.3459517 182.90585,103.881782 167.44212,103.881782 L167.44212,103.881782 L167.44212,134.881295 L49.4439744,134.881295 L49.4439744,16.8831488 L80.4434874,16.8831488 Z" id="形状结合" fill="#FF777C" transform="translate(122.442827, 75.882222) rotate(-345.000000) translate(-122.442827, -75.882222) "></path>
                    <path d="M59.777003,129.962067 C63.896662,112.433171 67.3245739,101.621459 70.0607388,97.5269317 C74.1649862,91.3851405 75.7884168,87.5288958 80.2441802,87.5288958 C83.2146891,87.5288958 85.4628966,89.1239422 86.9888025,92.3140352 C89.8030943,84.577109 93.8064671,81.1174834 98.9989209,81.9351585 C102.614694,82.6269176 104.583046,86.0865432 104.903979,92.3140352 C109.592047,89.7194893 113.017972,88.8107105 115.181757,89.5876987 C118.427433,90.753181 121.361424,95.115852 121.361424,102.191867 C126.141408,101.5548 132.072132,105.059711 132.715508,110.255224 C133.358885,115.450738 133.185458,122.402319 131.616489,130.679556 C130.57051,136.197713 129.66683,140.810403 128.905449,144.517624 L59.777003,129.962067 Z" id="路径-33" fill="#FFFFFF"></path>
                    <g id="编组" transform="translate(96.848794, 129.962067) rotate(-75.000000) translate(-96.848794, -129.962067) translate(49.901066, 95.088829)" stroke="#535B6B" stroke-linecap="round" stroke-width="4">
                        <path d="M39.9054983,0.150703479 C50.1049491,0.150703479 70.5279226,-0.959974721 79.0018731,2.84913287 C87.4758236,6.65824045 83.5855839,12.7338209 81.2937285,14.6819497" id="路径-29"></path>
                        <path d="M42.2250624,17.1443024 C56.6248636,15.8877342 92.8237908,11.1571642 93.8601857,23.0764111 C94.8965805,34.995658 72.9617545,34.3485123 45.3675489,35.6925351" id="路径-30"></path>
                        <path d="M84.2065589,32.849831 C90.7556715,33.8352298 94.758093,47.246614 82.6569406,50.3100083 C74.5895056,52.3522712 60.3390248,53.3734026 39.9054983,53.3734026" id="路径-31"></path>
                        <path d="M79.3252198,51.4538592 C82.1390154,55.287971 82.9234118,63.5782437 69.083237,66.9907366 C55.2430622,70.4032294 11.7076298,69.683028 6.22405534e-14,69.683028" id="路径-32"></path>
                    </g>
                </g>
            </g>
        </g>
    </g>
</svg>