<?xml version="1.0" encoding="UTF-8"?>
<svg width="600px" height="600px" viewBox="0 0 600 600" version="1.1" xmlns="http://www.w3.org/2000/svg" xmlns:xlink="http://www.w3.org/1999/xlink">
    <title>快速上手</title>
    <defs>
        <path d="M50.5405897,202.598996 C50.5405897,185.267604 51.0870617,164.311172 28.1709784,144.152085 C5.25489507,123.992998 0,99.7224339 0,75.7360209 C0,51.7496078 24.6182702,0 80.6932963,0 C136.768322,0 162.828794,47.6036836 162.828794,75.7360209 C162.828794,103.868358 157.613839,121.034891 134.892693,144.152085 C112.171547,167.269279 111.47881,186.615508 111.47881,202.598996 C111.47881,218.582485 111.47881,207.402206 111.47881,231.612043 C111.47881,255.82188 90.8801985,261.052043 81.4143969,261.052043 C71.9485954,261.052043 50.5405897,254.797824 50.5405897,231.612043 C50.5405897,208.426262 50.5405897,219.930389 50.5405897,202.598996 Z" id="path-1"></path>
    </defs>
    <g id="快速上手" stroke="none" stroke-width="1" fill="none" fill-rule="evenodd">
        <g id="编组-2" transform="translate(27.000000, 90.000000)">
            <path d="M326.900652,5.52913771e-06 C345.26434,0.35297484 365.539892,9.10866954 387.606131,11.1821385 C389.323712,11.3435322 391.045924,11.5003295 392.771211,11.6540575 L395.361255,11.8825384 C396.657236,11.9958187 397.95451,12.1078021 399.252421,12.2191327 L401.848899,12.4411144 C402.281722,12.4780299 402.714568,12.5149206 403.147411,12.5518103 L408.339878,12.9959689 C444.664691,16.1261381 480.289465,19.923036 500.818483,38.5286841 C522.421529,58.1077333 523.936064,88.7352674 524.653143,120.676967 L524.704469,123.016369 C524.72129,123.796857 524.737916,124.577986 524.754628,125.359614 L524.8053,127.705854 C524.908275,132.400767 525.0244,137.108569 525.214136,141.798754 C525.659289,152.802741 530.03548,165.187637 534.611279,177.632194 L535.35446,179.650545 C540.43677,193.443328 545.516511,207.221673 545.516511,219.187824 C545.516511,267.288889 496.57892,271.61341 484.560902,334.01975 C477.693896,369.678271 465.40264,409.263572 400.854619,409.263572 C376.862556,409.263572 353.970063,419.875789 325.767029,419.875789 L326.901365,419.869 Z" id="形状结合" fill="#FFD6AC"></path>
            <path d="M109.833987,0.00104359554 C131.872529,0.397770911 151.058473,12.2777352 169.85598,24.6363622 L172.103644,26.1168161 C189.698272,37.72066 207.037965,49.3594006 226.152211,51.9696576 C305.065644,62.7461405 345.436445,136.739294 318.639783,209.931935 C300.682074,258.981778 337.28717,334.01975 303.298146,368.642447 C289.796787,382.395518 263.303073,382.914921 236.228694,382.858984 L233.607197,382.8522 L233.607197,382.8522 L229.673621,382.840865 C215.25618,382.805519 200.957802,382.896381 188.650022,385.022174 C157.712937,390.365612 138.685483,421.437505 109.834121,419.948191 Z" id="形状结合" fill-opacity="0.2" fill="#7E838E" transform="translate(218.367665, 210.000531) scale(-1, 1) translate(-218.367665, -210.000531) "></path>
            <g id="矩形" transform="translate(248.085309, 141.798754)">
                <mask id="mask-2" fill="white">
                    <use xlink:href="#path-1"></use>
                </mask>
                <use id="蒙版" stroke="#535B6B" stroke-width="4" stroke-linecap="round" xlink:href="#path-1"></use>
                <rect fill="#535B6B" mask="url(#mask-2)" x="42.4546329" y="192.220996" width="82.6448531" height="75.2438215"></rect>
            </g>
            <path d="M316.102012,346.674096 C310.557412,298.510944 306.610582,267.7062 304.261521,254.259864 C300.73793,234.090361 285.375693,235.519011 285.375693,248.409574 C285.375693,261.300137 296.857459,270.77076 308.622268,268.281256 C320.387077,265.791752 317.948393,251.888167 328.778606,251.888167 C339.608818,251.888167 332.806658,270.443476 352.178993,272.324775 C371.551327,274.206075 381.25656,258.170072 378.166285,248.409574 C375.076009,238.649076 359.68249,241.017328 355.821029,254.259864 C353.246722,263.088222 348.974189,294.165019 343.003432,347.490256" id="路径-22" stroke="#535B6B" stroke-width="4" stroke-linecap="round"></path>
            <line x1="248.085309" y1="131.220697" x2="196.810759" y2="79.9461466" id="路径-23" stroke="#535B6B" stroke-width="4" stroke-linecap="round"></line>
            <line x1="290.539942" y1="105.583422" x2="266.508129" y2="38.5286841" id="路径-24" stroke="#535B6B" stroke-width="4" stroke-linecap="round"></line>
            <line x1="362.38259" y1="105.583422" x2="391.526486" y2="38.5286841" id="路径-25" stroke="#535B6B" stroke-width="4" stroke-linecap="round"></line>
            <line x1="425.63128" y1="141.798754" x2="465.40264" y2="98.5690864" id="路径-26" stroke="#535B6B" stroke-width="4" stroke-linecap="round"></line>
            <g id="编组" transform="translate(0.000000, 58.658050)">
                <path d="M57.6010848,0 C157.531274,77.5842742 216.479811,121.539933 234.446697,131.866976 C261.397025,147.35754 264.768437,154.019331 266.508129,158.783877 C268.24782,163.548422 264.432793,181.009124 240.976392,177.855514 C228.104667,172.704026 208.174737,164.366817 181.186602,152.843887 C186.338916,160.195267 187.296833,166.201717 184.060351,170.863235 C180.82387,175.524754 175.850041,177.971686 169.138864,178.204029 C175.699088,183.861151 176.796957,189.596758 172.432471,195.410849 C168.067985,201.224939 162.401075,202.954556 155.43174,200.599698 C158.48555,210.175657 158.48555,216.24914 155.43174,218.820148 C150.851024,222.676659 146.518452,226.36446 136.023945,220.629289 C129.027607,216.805842 102.886654,200.217157 57.6010848,170.863235 L57.6010848,0 Z" id="路径-21" fill="#FF777C"></path>
                <path d="M84.1337439,21.2880967 C108.423348,40.5125105 121.351602,49.4039979 135.390103,60.0766718 C149.428603,70.7493458 159.255614,81.059512 169.352228,106.547311 C172.740528,115.357079 173.375312,115.579101 177.475188,125.501275 C185.701894,142.508876 162.618015,151.190148 149.791958,136.830773 C136.965901,122.471398 123.847004,107.456668 120.904358,100.298908 C117.961713,93.141148 126.883651,89.7199958 131.515015,95.6255781 C136.146378,101.53116 137.093629,112.314055 130.805216,122.31027 C124.516804,132.306485 111.377857,142.141588 87.9179739,145.125294" id="路径-15" stroke="#535B6B" stroke-width="4" stroke-linecap="round"></path>
                <path d="M149.740212,72.5626471 C212.299426,117.563286 248.504408,143.197804 258.355159,149.466203 C275.25973,159.942867 264.531456,184.6122 238.555532,176.101323 C221.23825,170.427404 196.47189,160.102061 164.256452,145.125294" id="路径-16" stroke="#535B6B" stroke-width="4" stroke-linecap="round"></path>
                <path d="M177.602113,151.424837 C194.145242,159.601797 183.145537,184.244705 167.270584,176.831081 C151.395631,169.417458 157.71073,172.174127 148.882225,167.100692 C140.05372,162.027258 142.093438,141.801412 157.958114,142.898497" id="路径-17" stroke="#535B6B" stroke-width="4" stroke-linecap="round"></path>
                <path d="M168.878728,177.855514 C180.685641,184.043264 172.803675,210.039149 155.43174,200.599698 C148.680418,196.986779 140.963481,191.820874 131.20245,184.838194 C121.44142,177.855514 130.874866,157.365278 145.077305,165.37735" id="路径-18" stroke="#535B6B" stroke-width="4" stroke-linecap="round"></path>
                <path d="M153.447715,199.566833 C164.21894,206.44077 154.821461,233.082129 136.207288,221.741027 C129.695267,217.573157 124.263991,213.814933 120.928554,207.661354 C116.509968,199.855804 123.512757,187.58372 137.181891,190.080892" id="路径-19" stroke="#535B6B" stroke-width="4" stroke-linecap="round"></path>
                <line x1="124.235082" y1="212.955361" x2="0" y2="130.346994" id="路径-20" stroke="#535B6B" stroke-width="4" stroke-linecap="round"></line>
            </g>
        </g>
    </g>
</svg>