<?xml version="1.0" encoding="UTF-8"?>
<svg width="600px" height="600px" viewBox="0 0 600 600" version="1.1" xmlns="http://www.w3.org/2000/svg" xmlns:xlink="http://www.w3.org/1999/xlink">
    <title>社区友好</title>
    <g id="社区友好" stroke="none" stroke-width="1" fill="none" fill-rule="evenodd">
        <g id="编组-2" transform="translate(12.000000, 120.000000)">
            <path d="M517.896405,123.480814 C549.515576,123.480814 575.147977,149.074728 575.147977,180.646422 L575.147977,248.653785 C575.147977,280.225479 549.515576,305.819393 517.896405,305.819393 L508.091359,305.818814 L515.757697,360 L473.069359,305.818814 L322.944931,305.819393 C291.325761,305.819393 265.693359,280.225479 265.693359,248.653785 L265.693359,180.646422 C265.693359,149.074728 291.325761,123.480814 322.944931,123.480814 L517.896405,123.480814 Z" id="蒙版" stroke="#535B6B" stroke-width="4" fill-opacity="0.2" fill="#7E838E" stroke-linecap="round" stroke-linejoin="round"></path>
            <path d="M225.922029,294.358111 C234.651901,294.358111 241.72886,301.524407 241.72886,310.364482 L241.72886,329.406543 C241.72886,338.246617 234.651901,345.412914 225.922029,345.412914 L223.020211,345.412111 L225.057904,360 L213.711211,345.412111 L172.097043,345.412914 C163.367171,345.412914 156.290211,338.246617 156.290211,329.406543 L156.290211,310.364482 C156.290211,301.524407 163.367171,294.358111 172.097043,294.358111 L225.922029,294.358111 Z" id="蒙版" stroke="#535B6B" stroke-width="4" fill-opacity="0.2" fill="#7E838E" stroke-linecap="round" stroke-linejoin="round" transform="translate(199.009536, 327.179056) scale(-1, 1) translate(-199.009536, -327.179056) "></path>
            <polygon id="路径-2" fill="#FFFFFF" points="350.988348 105.572004 345.922334 125.483187 347.361815 141.402271 354.660812 160.325725 355.51772 174.143777 413.680144 174.143777 418.056278 147.470584 431.330394 117.862051 448.778397 97.7538167 450.115808 91.7664718 445.979899 89.3763782 440.723101 89.3763782 424.799939 98.6083857 419.244708 102.698253 424.799939 79.7462707 424.799939 59.9857252 421.415368 42.8823715 415.207306 39.6718576 408.26031 42.8823715 403.807598 37.00023 397.336589 37.00023 394.01163 43.5677449 388.668375 40.5624001 384.660934 41.6421983 382.253592 45.0070051 382.253592 56.7178665 376.391119 53.0299953 370.162484 54.4331373 368.980792 59.9857252 368.980792 71.9942235 360.87827 91.7664718"></polygon>
            <path d="M197.856262,65.1324681 C222.661873,65.1324681 242.770795,85.3150981 242.770795,110.211634 L242.770795,163.840297 C242.770795,188.736832 222.661873,208.919462 197.856262,208.919462 L191.023,208.918468 L196.925666,250.596852 L164.064,208.918468 L44.914533,208.919462 C20.1089214,208.919462 0,188.736832 0,163.840297 L0,110.211634 C0,85.3150981 20.1089214,65.1324681 44.914533,65.1324681 L197.856262,65.1324681 Z" id="蒙版" stroke="#535B6B" stroke-width="4" fill-opacity="0.2" fill="#7E838E" stroke-linecap="round" stroke-linejoin="round" transform="translate(121.385397, 157.864660) scale(-1, 1) translate(-121.385397, -157.864660) "></path>
            <polygon id="路径-48" fill="#FFFFFF" points="115.513089 44.1912547 124.557499 80.8198691 127.372611 95.3341475 123.9475 111.273471 169.694649 127.227357 175.402876 119.953234 187.888374 112.251326 196.006485 99.0651264 197.651869 85.709306 196.006485 59.7893132 197.651869 39.0541902 199.728219 28.4574256 197.651869 24.9927338 191.157186 27.1530471 193.693375 15.2831679 192.611691 11.1131733 187.888374 9.8959907 181.605763 15.9915586 183.050912 5.77140953 179.395362 1.50673595 175.402876 2.39735564 170.5129 6.52938223 167.54648 -7.06253707e-15 162.084431 -7.40339162e-15 156.715662 5.12131041 146.145275 29.237883 139.634375 54.3060941 129.292478 39.0541902 123.063644 35.7268249 117.788587 37.3753431"></polygon>
            <g id="编组-5" transform="translate(345.922334, 37.000230)" stroke="#535B6B" stroke-linecap="round" stroke-width="4">
                <path d="M42.7460407,266.735294 C18.0547744,254.456315 5.00750797,224.09567 3.60424138,175.653361 C3.40781627,164.120715 3.89462866,151.600393 5.16092529,137.994165 C15.6078262,136.410636 67.9057783,136.191759 72.1339437,136.26524 C72.30252,145.134904 73.178679,166.974617 77.6241383,182.924668 C89.9131896,222.369207 111.620163,230.89601 142.74506,208.505075 C173.869956,186.114141 202.696817,177.587339 229.225643,182.924668 C229.225643,191.382576 229.225643,201.687649 229.225643,213.839888 C229.225643,232.068245 215.76043,264.357601 176.387472,268.819163 C167.333099,268.616805 162.641897,268.616805 162.313865,268.819163 L169.835363,322.99977 L126.695805,268.819163 L45.2966884,268.819163 C44.7007959,268.125674 43.85058,267.431051 42.7460407,266.735294 Z" id="路径" fill="#4D3FFF" stroke-linejoin="round"></path>
                <path d="M67.3857804,136.253005 C68.824625,119.832583 72.1211303,106.477668 77.2752961,96.1882575 C85.0065448,80.7541423 94.6735381,68.7337882 101.692549,62.7550851 C108.71156,56.7763819 99.5707784,47.8285988 91.3342845,53.3430684 C83.0977907,58.857538 77.2752961,63.7606995 72.2802715,68.3340243 C77.2967639,55.5243661 82.2917884,33.4589927 77.2752961,10.8305467 C75.080728,-0.855843448 62.0524513,0.7909355 62.0524513,10.8305467 C62.0524513,20.8701579 62.734754,31.6226666 57.8852634,47.1888759" id="路径-38" stroke-linejoin="round"></path>
                <path d="M62.3176796,8.72983284 C62.9719496,-2.21106933 47.5867202,-3.58846277 48.151961,8.72983284 C48.151961,23.2198638 47.0581044,30.7938946 42.7460407,42.7460407" id="路径-39"></path>
                <path d="M48.0849593,10.0107834 C48.3516617,1.19033117 36.2273373,1.63784437 36.264114,10.0107834 C36.264114,17.0789404 34.6290593,35.3222923 29.387903,44.5271257" id="路径-40"></path>
                <path d="M34.7311581,22.268105 C34.5334592,14.064037 23.6218209,13.8373724 23.6218209,22.268105 C23.6218209,30.6988375 23.7354613,40.2215618 10.9885659,59.6138384 C-1.75832957,79.0061149 -2.56225775,98.069636 4.21315405,111.127954 C8.73009525,119.8335 10.5241725,128.505364 9.59538583,137.143547" id="路径-41"></path>
                <path d="M72.1339437,67.6812311 C58.4888657,72.5346552 49.880288,77.2842153 46.3082107,81.9299113" id="路径-42"></path>
                <path d="M25.8257329,72.1339437 C35.6010818,68.5717736 45.9907445,67.6812311 56.9947209,69.4623161" id="路径-43"></path>
            </g>
            <g id="编组" stroke="#535B6B" stroke-linecap="round" stroke-width="4">
                <path d="M123.9475,111.273471 C128.856974,97.6275693 127.194724,89.0790876 123.9475,75.3182125 C120.700275,61.5573375 118.035006,51.7188732 115.842475,45.1150339 C113.649943,38.5111946 122.837723,29.8909837 130.522667,41.2676073 C138.207612,52.6442308 154.064518,68.2015403 158.169316,89.5893796" id="路径-37"></path>
                <path d="M140.468365,54.3060941 C141.799995,39.7574586 150.93914,14.1489217 156.715662,5.12131041 C162.492184,-3.90630089 171.660133,-0.0153392173 169.320435,9.160894 C166.980738,18.3371272 163.260629,27.2486572 161.591829,43.4949834" id="路径-44"></path>
                <path d="M169.320435,9.160894 C172.785828,-1.75837211 185.874994,-1.07792258 182.499758,11.7372145 C180.494465,23.270768 176.415052,31.9584645 175.65814,48.2098665" id="路径-45"></path>
                <path d="M179.395362,24.8583012 C181.776709,17.9230774 182.388679,17.513384 184.631052,12.7886715 C186.873425,8.06395901 196.079901,8.69310771 193.108663,17.9230774 C190.137425,27.1530471 186.169278,45.1463798 187.066456,51.042658" id="路径-46"></path>
                <path d="M187.852466,40.065206 C188.846212,35.7268249 189.9624,32.2256359 191.827888,27.8023145 C193.693375,23.3789931 201.232172,24.1133499 199.460789,30.4693244 C197.689406,36.8252988 194.898821,49.4850508 196.294113,68.4741634 C197.689406,87.463276 199.784557,101.797784 189.58996,110.977219 C179.395362,120.156654 175.311251,117.5501 170.5129,125.635186" id="路径-47"></path>
                <path d="M3.19187352,154.423616 C37.0529941,173.337447 59.4150263,181.67342 70.2779699,179.431537 C81.1409136,177.189654 96.2192865,153.681339 115.513089,108.906592 C153.71739,121.008609 173.941585,127.864954 176.185674,129.475627 C174.356354,135.281919 164.76493,175.215043 148.856776,208.919462 L78.739962,208.919462 L45.8451286,249.896285 L51.9174797,208.919462 C55.3915176,208.919462 52.2646031,208.919462 42.5367362,208.919462 C27.9449359,208.919462 0,194.868733 0,164.534431 C0,162.04739 0,158.289932 0,153.262057 L3.19187352,154.423616 Z" id="路径" fill="#FF777C" stroke-linejoin="round"></path>
            </g>
            <circle id="椭圆形" fill="#535B6B" cx="132.325712" cy="253.722656" r="16.6709559"></circle>
            <circle id="椭圆形" fill="#535B6B" cx="174.003102" cy="253.722656" r="16.6709559"></circle>
            <circle id="椭圆形" fill="#535B6B" cx="215.680492" cy="253.722656" r="16.6709559"></circle>
        </g>
    </g>
</svg>