<svg width="238" height="28" viewBox="0 0 238 28" fill="none" xmlns="http://www.w3.org/2000/svg">
<path fill-rule="evenodd" clip-rule="evenodd" d="M111.824 23.0449C113.953 23.032 115.596 22.5079 116.754 21.4725C117.92 20.437 118.497 19.0278 118.486 17.2447L118.443 10.0293C118.432 8.24622 117.836 6.83987 116.654 5.81027C115.472 4.78067 113.817 4.27229 111.688 4.28512C109.559 4.29796 107.91 4.82626 106.741 5.87004C105.571 6.91381 104.992 8.32725 105.003 10.1104L105.046 17.3257C105.057 19.1088 105.657 20.511 106.847 21.5322C108.037 22.5535 109.696 23.0577 111.824 23.0449ZM111.784 20.134C109.272 20.1491 108.01 19.1449 107.998 17.1213L107.957 10.2791C107.944 8.23895 109.204 7.21122 111.735 7.19596C114.227 7.18093 115.479 8.19352 115.491 10.2337L115.532 17.0759C115.545 19.0995 114.295 20.1188 111.784 20.134ZM136.626 21.3402C135.511 22.3837 133.946 22.9115 131.931 22.9236C129.884 22.936 128.274 22.419 127.099 21.3728C125.925 20.3266 125.333 18.9451 125.323 17.2283L125.319 16.569L128.271 16.5512L128.276 17.3847C128.281 18.1809 128.633 18.8236 129.331 19.3129C130.029 19.8021 130.913 20.0435 131.984 20.0371C132.929 20.0314 133.72 19.8068 134.358 19.3634C134.996 18.92 135.313 18.296 135.308 17.4916C135.305 16.9691 135.126 16.5223 134.773 16.1512C134.419 15.7801 133.956 15.4906 133.385 15.2825C132.813 15.0745 132.187 14.8792 131.506 14.6967C130.825 14.5142 130.144 14.2964 129.463 14.0434C128.782 13.7904 128.157 13.4873 127.589 13.1341C127.02 12.7809 126.558 12.2881 126.203 11.6558C125.848 11.0235 125.667 10.2719 125.662 9.40108C125.653 7.89166 126.149 6.6446 127.151 5.65989C128.153 4.67518 129.662 4.17675 131.677 4.1646C133.692 4.15245 135.23 4.62836 136.291 5.59234C137.351 6.55632 137.886 7.85108 137.896 9.4766L137.901 10.2977L134.948 10.3155L134.943 9.41977C134.939 8.72311 134.633 8.15683 134.024 7.72093C133.416 7.28502 132.624 7.07001 131.648 7.0759C130.734 7.08141 129.999 7.28489 129.443 7.68635C128.886 8.08781 128.61 8.62857 128.614 9.30863C128.618 9.81454 128.855 10.2444 129.325 10.5982C129.796 10.952 130.39 11.2221 131.106 11.4085C131.821 11.595 132.596 11.8287 133.43 12.1099C134.264 12.391 135.037 12.7077 135.75 13.06C136.463 13.4124 137.062 13.9561 137.547 14.6914C138.032 15.4266 138.277 16.3042 138.283 17.3243C138.293 18.9582 137.741 20.2968 136.626 21.3402ZM60.8942 11.246C60.9055 13.1081 59.5296 14.5033 57.3092 14.5167L52.9108 14.5432L52.8713 7.9864L57.2697 7.95988C59.4659 7.94664 60.8813 9.10313 60.8939 11.1952L60.8942 11.246ZM57.4917 5.16952L50.0313 5.2145L50.1388 23.0482L52.962 23.0312L52.9275 17.3147L57.2304 17.2887C60.9067 17.2666 63.827 15.2376 63.8028 11.2326L63.8025 11.1815C63.7808 7.58468 61.4065 5.14591 57.4917 5.16952ZM84.5899 11.1031C84.6011 12.9653 83.2252 14.3604 81.0051 14.3738L76.6067 14.4003L76.5672 7.84353L80.9656 7.81701C83.1615 7.80377 84.577 8.96026 84.5896 11.0523L84.5899 11.1031ZM81.1875 5.02665L73.7271 5.07163L73.8347 22.9053L76.6579 22.8883L76.6234 17.1718L80.926 17.1459C84.6023 17.1237 87.5226 15.0948 87.4985 11.0898L87.4981 11.0387C87.4765 7.44181 85.1021 5.00304 81.1875 5.02665ZM0.923204 21.0467L10.5822 8.25132L1.15663 8.30815L1.13975 5.50931L14.5319 5.42856L14.5459 7.74968L4.88014 20.5253L14.6255 20.4673L14.6423 23.263L0.93706 23.3449L0.923204 21.0467ZM25.0877 5.3651L38.7876 5.2825L38.8044 8.08056L28.6721 8.14165C28.912 10.3921 32.1681 12.9699 35.0791 13.7645L35.0792 13.7747L35.0846 14.6803L35.0847 14.6905C32.1835 15.5201 28.9586 18.1292 28.7459 20.3821L38.8782 20.321L38.8951 23.1162L25.1952 23.1988C25.1722 19.3903 26.5848 15.9425 30.4037 14.2569L30.4037 14.2545C26.5647 12.6148 25.1107 9.18428 25.0877 5.3651ZM210.633 22.4491C212.761 22.4363 214.405 21.9122 215.562 20.8767C216.728 19.8413 217.305 18.432 217.295 16.6489L217.251 9.43357C217.24 7.65046 216.644 6.24411 215.462 5.21452C214.28 4.18492 212.625 3.67653 210.496 3.68937C208.367 3.7022 206.718 4.23051 205.549 5.27428C204.38 6.31806 203.8 7.7315 203.811 9.5146L203.854 16.7299C203.865 18.513 204.465 19.9152 205.655 20.9365C206.845 21.9577 208.504 22.462 210.633 22.4491ZM210.592 19.5382C208.08 19.5534 206.819 18.5491 206.806 16.5255L206.765 9.6834C206.753 7.6432 208.012 6.61547 210.543 6.60021C213.035 6.58518 214.287 7.59777 214.299 9.63797L214.341 16.4801C214.353 18.5037 213.103 19.5231 210.592 19.5382ZM184.133 22.2427L184.025 4.40062L190.774 4.35993C193.935 4.34087 195.607 5.52486 196.489 6.85233C197.371 8.17952 197.463 9.64935 197.467 10.2012L197.503 16.2805C197.507 16.8323 197.432 18.3032 196.566 19.6409C195.7 20.9789 194.043 22.183 190.882 22.202L184.133 22.2427ZM186.925 19.4387L186.851 7.1623L190.651 7.13939C192.497 7.12826 193.473 7.73951 193.989 8.47477C194.504 9.20979 194.558 10.0678 194.561 10.5488L194.593 15.9595C194.596 16.4405 194.553 17.2991 194.046 18.0403C193.54 18.7817 192.571 19.4047 190.725 19.4158L186.925 19.4387ZM235.352 20.7574C234.194 21.7928 232.551 22.317 230.422 22.3298C228.294 22.3426 226.634 21.8384 225.445 20.8172C224.255 19.7959 223.655 18.3937 223.644 16.6106L223.601 9.39528C223.59 7.61218 224.169 6.19874 225.339 5.15497C226.508 4.11119 228.157 3.58288 230.286 3.57005C232.414 3.55721 234.07 4.0656 235.252 5.0952C236.434 6.12479 237.03 7.53114 237.041 9.31425L237.046 10.173L234.093 10.1908L234.089 9.51865C234.077 7.47845 232.825 6.46586 230.333 6.48089C227.802 6.49615 226.542 7.52388 226.555 9.56408L226.596 16.4062C226.608 18.4298 227.87 19.4341 230.381 19.4189C232.893 19.4038 234.142 18.3844 234.13 16.3608L234.126 15.6554L237.079 15.6376L237.084 16.5296C237.095 18.3127 236.518 19.722 235.352 20.7574Z" fill="#E3E3E3"/>
<path d="M162.941 4.16132L163.053 22.6611" stroke="white" stroke-opacity="0.3"/>
</svg>
